<svg xmlns="http://www.w3.org/2000/svg" viewBox="0 0 1024 1280" style="enable-background:new 0 0 1024 1024" xml:space="preserve"><path d="M91.8 215.5H224c-19.3-14.7-38.6-29.4-57.9-44l9.9 47.1c8 37.7 15.9 75.5 23.9 113.2 9.7 45.8 19.3 91.7 29 137.5 8.3 39.5 16.6 78.9 25 118.4 4 19.2 7.5 38.5 12.1 57.5.1.3.1.5.2.8 2 4.8 4 9.6 6 14.3 3.8 7 8.9 12.6 15.5 16.8 10.5 8.1 22.8 12.9 36.4 12.9h442c20.4 0 40.8.4 61.2 0h.8c13.4 0 25.9-4.8 36.4-12.9 10.4-8 17.7-18.3 21.5-31.2 3.4-11.6 6.9-23.2 10.3-34.8l24.9-84c10-33.7 20-67.5 30-101.2 8.7-29.2 17.3-58.3 26-87.5 4.2-14.2 8.6-28.4 12.7-42.7.1-.2.1-.4.2-.6 11.1-37.5-19.5-76-57.9-76H510.3c-19.4 0-38.8-.2-58.2 0h-.8c-15.4 0-31.5 6.7-42.4 17.6-10.4 10.4-18.2 27.5-17.6 42.4.7 15.5 5.8 31.6 17.6 42.4 11.7 10.8 26.2 17.6 42.4 17.6h421.9c19.4 0 38.8.3 58.2 0h.8c-19.3-25.3-38.6-50.6-57.9-76-3.4 11.6-6.9 23.2-10.3 34.8l-24.9 84c-10 33.7-20 67.5-30 101.2-8.7 29.2-17.3 58.3-26 87.5-4.2 14.2-8.6 28.4-12.7 42.7-.1.2-.1.4-.2.6 19.3-14.7 38.6-29.4 57.9-44h-442c-20.4 0-40.8-.3-61.2 0h-.8c19.3 14.7 38.6 29.4 57.9 44l-9.9-47.1c-8-37.7-15.9-75.5-23.9-113.2-9.7-45.8-19.3-91.7-29-137.5-8.3-39.5-16.6-78.9-25-118.4-4-19.2-7.5-38.5-12.1-57.5-.1-.3-.1-.5-.2-.8-2-4.8-4-9.6-6-14.3-3.8-7-8.9-12.6-15.5-16.8-10.5-8.1-22.8-12.9-36.4-12.9H91.8c-15.4 0-31.5 6.7-42.4 17.6-10.4 10.4-18.2 27.5-17.6 42.4.7 15.5 5.8 31.6 17.6 42.4 11.7 10.9 26.2 17.7 42.4 17.7zm571.3 615.2c.3 18.1 5 37.6 15.5 52.6 9.4 13.4 15.6 19.3 28.7 28.9 7.3 5.3 16.1 8.8 24.5 11.8 17 6 38.5 5.9 55.8.8 8.2-2.4 16.6-5.8 23.8-10.4 7.8-4.9 15.8-10.8 21.7-18 5.5-6.6 11.1-13.3 14.6-21.1 7.1-15.6 9.3-23.8 10.9-41.3.8-9.1-1-18.8-2.9-27.5-.5-2.2-1.2-4.2-2-6.3-2.4-6.4-4.9-13.1-8.4-19-8.8-15-22.8-29.3-38.6-36.9-15.3-7.3-23.7-9.3-40.4-11.2-9.4-1-19.1.6-28.2 2.4-2.6.5-5.1 1.3-7.6 2.2-6.4 2.4-13.1 4.9-19 8.4-8 4.7-15.8 10.6-22 17.7-16.6 19.1-26 41.5-26.4 66.9-.3 15.2 6.9 31.7 17.6 42.4 10.4 10.4 27.5 18.2 42.4 17.6 15.5-.7 31.6-5.8 42.4-17.6 10.9-11.9 17.3-26.1 17.6-42.4 0-1.8.2-3.6.4-5.5-.7 5.3-1.4 10.6-2.1 16 .5-3.1 1.3-6 2.5-9-2 4.8-4 9.6-6 14.3 1.4-3.2 3.1-6.2 5.2-9-3.1 4-6.3 8.1-9.4 12.1 1.9-2.4 4-4.5 6.4-6.4-4 3.1-8.1 6.3-12.1 9.4 2.8-2.1 5.7-3.8 9-5.2-4.8 2-9.6 4-14.3 6 2.9-1.1 5.9-1.9 9-2.5-5.3.7-10.6 1.4-16 2.1 3.7-.5 7.3-.5 10.9 0-5.3-.7-10.6-1.4-16-2.1 3.1.5 6 1.3 9 2.5-4.8-2-9.6-4-14.3-6 3.2 1.4 6.2 3.1 9 5.2-4-3.1-8.1-6.3-12.1-9.4 2.4 1.9 4.5 4 6.4 6.4-3.1-4-6.3-8.1-9.4-12.1 2.1 2.8 3.8 5.7 5.2 9-2-4.8-4-9.6-6-14.3 1.1 2.9 1.9 5.9 2.5 9-.7-5.3-1.4-10.6-2.1-16 .5 3.7.5 7.3 0 10.9.7-5.3 1.4-10.6 2.1-16-.5 3.1-1.3 6-2.5 9 2-4.8 4-9.6 6-14.3-1.4 3.2-3.1 6.2-5.2 9 3.1-4 6.3-8.1 9.4-12.1-1.9 2.4-4 4.5-6.4 6.4 4-3.1 8.1-6.3 12.1-9.4-2.8 2.1-5.7 3.8-9 5.2 4.8-2 9.6-4 14.3-6-2.9 1.1-5.9 1.9-9 2.5 5.3-.7 10.6-1.4 16-2.1-3.7.5-7.3.5-10.9 0 5.3.7 10.6 1.4 16 2.1-3.1-.5-6-1.3-9-2.5 4.8 2 9.6 4 14.3 6-3.2-1.4-6.2-3.1-9-5.2 4 3.1 8.1 6.3 12.1 9.4-2.4-1.9-4.5-4-6.4-6.4 3.1 4 6.3 8.1 9.4 12.1-2.1-2.8-3.8-5.7-5.2-9 2 4.8 4 9.6 6 14.3-1.1-2.9-1.9-5.9-2.5-9 .7 5.3 1.4 10.6 2.1 16-.2-1.8-.4-3.6-.4-5.5-.3-15.6-6.5-31.4-17.6-42.4-10.4-10.4-27.5-18.2-42.4-17.6-15.5.7-31.6 5.8-42.4 17.6-10.7 11.7-17.9 26.4-17.6 42.5zm-384 0c.3 18.1 5 37.6 15.5 52.6 9.4 13.4 15.6 19.3 28.7 28.9 7.3 5.3 16.1 8.8 24.5 11.8 17 6 38.5 5.9 55.8.8 8.2-2.4 16.6-5.8 23.8-10.4 7.8-4.9 15.8-10.8 21.7-18 5.5-6.6 11.1-13.3 14.6-21.1 7.1-15.6 9.3-23.8 10.9-41.3.8-9.1-1-18.8-2.9-27.5-.5-2.2-1.2-4.2-2-6.3-2.4-6.4-4.9-13.1-8.4-19-8.8-15-22.8-29.3-38.6-36.9-15.3-7.3-23.7-9.3-40.4-11.2-9.4-1-19.1.6-28.2 2.4-2.6.5-5.1 1.3-7.6 2.2-6.4 2.4-13.1 4.9-19 8.4-8 4.7-15.8 10.6-22 17.7-16.5 19.1-25.9 41.5-26.4 66.9-.3 15.2 6.9 31.7 17.6 42.4 10.4 10.4 27.5 18.2 42.4 17.6 15.5-.7 31.6-5.8 42.4-17.6 10.9-11.9 17.3-26.1 17.6-42.4 0-1.8.2-3.6.4-5.5-.7 5.3-1.4 10.6-2.1 16 .5-3.1 1.3-6 2.5-9-2 4.8-4 9.6-6 14.3 1.4-3.2 3.1-6.2 5.2-9-3.1 4-6.3 8.1-9.4 12.1 1.9-2.4 4-4.5 6.4-6.4-4 3.1-8.1 6.3-12.1 9.4 2.8-2.1 5.7-3.8 9-5.2-4.8 2-9.6 4-14.3 6 2.9-1.1 5.9-1.9 9-2.5-5.3.7-10.6 1.4-16 2.1 3.7-.5 7.3-.5 10.9 0-5.3-.7-10.6-1.4-16-2.1 3.1.5 6 1.3 9 2.5-4.8-2-9.6-4-14.3-6 3.2 1.4 6.2 3.1 9 5.2-4-3.1-8.1-6.3-12.1-9.4 2.4 1.9 4.5 4 6.4 6.4-3.1-4-6.3-8.1-9.4-12.1 2.1 2.8 3.8 5.7 5.2 9-2-4.8-4-9.6-6-14.3 1.1 2.9 1.9 5.9 2.5 9-.7-5.3-1.4-10.6-2.1-16 .5 3.7.5 7.3 0 10.9.7-5.3 1.4-10.6 2.1-16-.5 3.1-1.3 6-2.5 9 2-4.8 4-9.6 6-14.3-1.4 3.2-3.1 6.2-5.2 9 3.1-4 6.3-8.1 9.4-12.1-1.9 2.4-4 4.5-6.4 6.4 4-3.1 8.1-6.3 12.1-9.4-2.8 2.1-5.7 3.8-9 5.2 4.8-2 9.6-4 14.3-6-2.9 1.1-5.9 1.9-9 2.5 5.3-.7 10.6-1.4 16-2.1-3.7.5-7.3.5-10.9 0 5.3.7 10.6 1.4 16 2.1-3.1-.5-6-1.3-9-2.5 4.8 2 9.6 4 14.3 6-3.2-1.4-6.2-3.1-9-5.2 4 3.1 8.1 6.3 12.1 9.4-2.4-1.9-4.5-4-6.4-6.4 3.1 4 6.3 8.1 9.4 12.1-2.1-2.8-3.8-5.7-5.2-9 2 4.8 4 9.6 6 14.3-1.1-2.9-1.9-5.9-2.5-9 .7 5.3 1.4 10.6 2.1 16-.2-1.8-.4-3.6-.4-5.5-.3-15.6-6.5-31.4-17.6-42.4-10.4-10.4-27.5-18.2-42.4-17.6-15.5.7-31.6 5.8-42.4 17.6-10.7 11.7-17.9 26.4-17.6 42.5z"/><text y="1039" font-size="5" font-weight="bold" font-family="'Helvetica Neue', Helvetica, Arial-Unicode, Arial, Sans-serif">Created by shashank singh</text><text y="1044" font-size="5" font-weight="bold" font-family="'Helvetica Neue', Helvetica, Arial-Unicode, Arial, Sans-serif">from the Noun Project</text></svg>