<svg xmlns="http://www.w3.org/2000/svg" xmlns:xlink="http://www.w3.org/1999/xlink" version="1.1" x="0px" y="0px" viewBox="0 0 1024 1280" style="enable-background:new 0 0 1024 1024;" xml:space="preserve"><g><g><g><path d="M91.8,215.5c38.6,0,77.1,0,115.7,0c5.5,0,11,0,16.5,0c-19.3-14.7-38.6-29.4-57.9-44     c3.3,15.7,6.6,31.4,9.9,47.1c8,37.7,15.9,75.5,23.9,113.2c9.7,45.8,19.3,91.7,29,137.5c8.3,39.5,16.6,78.9,25,118.4     c4,19.2,7.5,38.5,12.1,57.5c0.1,0.3,0.1,0.5,0.2,0.8c2,4.8,4,9.6,6,14.3c3.8,7,8.9,12.6,15.5,16.8c10.5,8.1,22.8,12.9,36.4,12.9     c16.8,0,33.5,0,50.3,0c40.2,0,80.4,0,120.7,0c48.3,0,96.6,0,144.9,0c42,0,84.1,0,126.1,0c20.4,0,40.8,0.4,61.2,0     c0.3,0,0.6,0,0.8,0c13.4,0,25.9-4.8,36.4-12.9c10.4-8,17.7-18.3,21.5-31.2c3.4-11.6,6.9-23.2,10.3-34.8c8.3-28,16.6-56,24.9-84     c10-33.7,20-67.5,30-101.2c8.7-29.2,17.3-58.3,26-87.5c4.2-14.2,8.6-28.4,12.7-42.7c0.1-0.2,0.1-0.4,0.2-0.6     c11.1-37.5-19.5-76-57.9-76c-16,0-31.9,0-47.9,0c-38.3,0-76.6,0-114.9,0c-46.3,0-92.7,0-139,0c-40,0-80.1,0-120.1,0     c-19.4,0-38.8-0.2-58.2,0c-0.3,0-0.6,0-0.8,0c-15.4,0-31.5,6.7-42.4,17.6c-10.4,10.4-18.2,27.5-17.6,42.4     c0.7,15.5,5.8,31.6,17.6,42.4c11.7,10.8,26.2,17.6,42.4,17.6c16,0,31.9,0,47.9,0c38.3,0,76.6,0,114.9,0c46.3,0,92.7,0,139,0     c40,0,80.1,0,120.1,0c19.4,0,38.8,0.3,58.2,0c0.3,0,0.6,0,0.8,0c-19.3-25.3-38.6-50.6-57.9-76c-3.4,11.6-6.9,23.2-10.3,34.8     c-8.3,28-16.6,56-24.9,84c-10,33.7-20,67.5-30,101.2c-8.7,29.2-17.3,58.3-26,87.5c-4.2,14.2-8.6,28.4-12.7,42.7     c-0.1,0.2-0.1,0.4-0.2,0.6c19.3-14.7,38.6-29.4,57.9-44c-16.8,0-33.5,0-50.3,0c-40.2,0-80.4,0-120.7,0c-48.3,0-96.6,0-144.9,0     c-42,0-84.1,0-126.1,0c-20.4,0-40.8-0.3-61.2,0c-0.3,0-0.6,0-0.8,0c19.3,14.7,38.6,29.4,57.9,44c-3.3-15.7-6.6-31.4-9.9-47.1     c-8-37.7-15.9-75.5-23.9-113.2c-9.7-45.8-19.3-91.7-29-137.5c-8.3-39.5-16.6-78.9-25-118.4c-4-19.2-7.5-38.5-12.1-57.5     c-0.1-0.3-0.1-0.5-0.2-0.8c-2-4.8-4-9.6-6-14.3c-3.8-7-8.9-12.6-15.5-16.8c-10.5-8.1-22.8-12.9-36.4-12.9c-38.6,0-77.1,0-115.7,0     c-5.5,0-11,0-16.5,0c-15.4,0-31.5,6.7-42.4,17.6c-10.4,10.4-18.2,27.5-17.6,42.4c0.7,15.5,5.8,31.6,17.6,42.4     C61.1,208.7,75.6,215.5,91.8,215.5L91.8,215.5z"/></g></g><g><g><path d="M663.1,830.7c0.3,18.1,5,37.6,15.5,52.6c9.4,13.4,15.6,19.3,28.7,28.9c7.3,5.3,16.1,8.8,24.5,11.8     c17,6,38.5,5.9,55.8,0.8c8.2-2.4,16.6-5.8,23.8-10.4c7.8-4.9,15.8-10.8,21.7-18c5.5-6.6,11.1-13.3,14.6-21.1     c7.1-15.6,9.3-23.8,10.9-41.3c0.8-9.1-1-18.8-2.9-27.5c-0.5-2.2-1.2-4.2-2-6.3c-2.4-6.4-4.9-13.1-8.4-19     c-8.8-15-22.8-29.3-38.6-36.9c-15.3-7.3-23.7-9.3-40.4-11.2c-9.4-1-19.1,0.6-28.2,2.4c-2.6,0.5-5.1,1.3-7.6,2.2     c-6.4,2.4-13.1,4.9-19,8.4c-8,4.7-15.8,10.6-22,17.7C672.9,782.9,663.5,805.3,663.1,830.7c-0.3,15.2,6.9,31.7,17.6,42.4     c10.4,10.4,27.5,18.2,42.4,17.6c15.5-0.7,31.6-5.8,42.4-17.6c10.9-11.9,17.3-26.1,17.6-42.4c0-1.8,0.2-3.6,0.4-5.5     c-0.7,5.3-1.4,10.6-2.1,16c0.5-3.1,1.3-6,2.5-9c-2,4.8-4,9.6-6,14.3c1.4-3.2,3.1-6.2,5.2-9c-3.1,4-6.3,8.1-9.4,12.1     c1.9-2.4,4-4.5,6.4-6.4c-4,3.1-8.1,6.3-12.1,9.4c2.8-2.1,5.7-3.8,9-5.2c-4.8,2-9.6,4-14.3,6c2.9-1.1,5.9-1.9,9-2.5     c-5.3,0.7-10.6,1.4-16,2.1c3.7-0.5,7.3-0.5,10.9,0c-5.3-0.7-10.6-1.4-16-2.1c3.1,0.5,6,1.3,9,2.5c-4.8-2-9.6-4-14.3-6     c3.2,1.4,6.2,3.1,9,5.2c-4-3.1-8.1-6.3-12.1-9.4c2.4,1.9,4.5,4,6.4,6.4c-3.1-4-6.3-8.1-9.4-12.1c2.1,2.8,3.8,5.7,5.2,9     c-2-4.8-4-9.6-6-14.3c1.1,2.9,1.9,5.9,2.5,9c-0.7-5.3-1.4-10.6-2.1-16c0.5,3.7,0.5,7.3,0,10.9c0.7-5.3,1.4-10.6,2.1-16     c-0.5,3.1-1.3,6-2.5,9c2-4.8,4-9.6,6-14.3c-1.4,3.2-3.1,6.2-5.2,9c3.1-4,6.3-8.1,9.4-12.1c-1.9,2.4-4,4.5-6.4,6.4     c4-3.1,8.1-6.3,12.1-9.4c-2.8,2.1-5.7,3.8-9,5.2c4.8-2,9.6-4,14.3-6c-2.9,1.1-5.9,1.9-9,2.5c5.3-0.7,10.6-1.4,16-2.1     c-3.7,0.5-7.3,0.5-10.9,0c5.3,0.7,10.6,1.4,16,2.1c-3.1-0.5-6-1.3-9-2.5c4.8,2,9.6,4,14.3,6c-3.2-1.4-6.2-3.1-9-5.2     c4,3.1,8.1,6.3,12.1,9.4c-2.4-1.9-4.5-4-6.4-6.4c3.1,4,6.3,8.1,9.4,12.1c-2.1-2.8-3.8-5.7-5.2-9c2,4.8,4,9.6,6,14.3     c-1.1-2.9-1.9-5.9-2.5-9c0.7,5.3,1.4,10.6,2.1,16c-0.2-1.8-0.4-3.6-0.4-5.5c-0.3-15.6-6.5-31.4-17.6-42.4     c-10.4-10.4-27.5-18.2-42.4-17.6c-15.5,0.7-31.6,5.8-42.4,17.6C670,799.9,662.8,814.6,663.1,830.7z"/></g></g><g><g><path d="M279.1,830.7c0.3,18.1,5,37.6,15.5,52.6c9.4,13.4,15.6,19.3,28.7,28.9c7.3,5.3,16.1,8.8,24.5,11.8     c17,6,38.5,5.9,55.8,0.8c8.2-2.4,16.6-5.8,23.8-10.4c7.8-4.9,15.8-10.8,21.7-18c5.5-6.6,11.1-13.3,14.6-21.1     c7.1-15.6,9.3-23.8,10.9-41.3c0.8-9.1-1-18.8-2.9-27.5c-0.5-2.2-1.2-4.2-2-6.3c-2.4-6.4-4.9-13.1-8.4-19     c-8.8-15-22.8-29.3-38.6-36.9c-15.3-7.3-23.7-9.3-40.4-11.2c-9.4-1-19.1,0.6-28.2,2.4c-2.6,0.5-5.1,1.3-7.6,2.2     c-6.4,2.4-13.1,4.9-19,8.4c-8,4.7-15.8,10.6-22,17.7C289,782.9,279.6,805.3,279.1,830.7c-0.3,15.2,6.9,31.7,17.6,42.4     c10.4,10.4,27.5,18.2,42.4,17.6c15.5-0.7,31.6-5.8,42.4-17.6c10.9-11.9,17.3-26.1,17.6-42.4c0-1.8,0.2-3.6,0.4-5.5     c-0.7,5.3-1.4,10.6-2.1,16c0.5-3.1,1.3-6,2.5-9c-2,4.8-4,9.6-6,14.3c1.4-3.2,3.1-6.2,5.2-9c-3.1,4-6.3,8.1-9.4,12.1     c1.9-2.4,4-4.5,6.4-6.4c-4,3.1-8.1,6.3-12.1,9.4c2.8-2.1,5.7-3.8,9-5.2c-4.8,2-9.6,4-14.3,6c2.9-1.1,5.9-1.9,9-2.5     c-5.3,0.7-10.6,1.4-16,2.1c3.7-0.5,7.3-0.5,10.9,0c-5.3-0.7-10.6-1.4-16-2.1c3.1,0.5,6,1.3,9,2.5c-4.8-2-9.6-4-14.3-6     c3.2,1.4,6.2,3.1,9,5.2c-4-3.1-8.1-6.3-12.1-9.4c2.4,1.9,4.5,4,6.4,6.4c-3.1-4-6.3-8.1-9.4-12.1c2.1,2.8,3.8,5.7,5.2,9     c-2-4.8-4-9.6-6-14.3c1.1,2.9,1.9,5.9,2.5,9c-0.7-5.3-1.4-10.6-2.1-16c0.5,3.7,0.5,7.3,0,10.9c0.7-5.3,1.4-10.6,2.1-16     c-0.5,3.1-1.3,6-2.5,9c2-4.8,4-9.6,6-14.3c-1.4,3.2-3.1,6.2-5.2,9c3.1-4,6.3-8.1,9.4-12.1c-1.9,2.4-4,4.5-6.4,6.4     c4-3.1,8.1-6.3,12.1-9.4c-2.8,2.1-5.7,3.8-9,5.2c4.8-2,9.6-4,14.3-6c-2.9,1.1-5.9,1.9-9,2.5c5.3-0.7,10.6-1.4,16-2.1     c-3.7,0.5-7.3,0.5-10.9,0c5.3,0.7,10.6,1.4,16,2.1c-3.1-0.5-6-1.3-9-2.5c4.8,2,9.6,4,14.3,6c-3.2-1.4-6.2-3.1-9-5.2     c4,3.1,8.1,6.3,12.1,9.4c-2.4-1.9-4.5-4-6.4-6.4c3.1,4,6.3,8.1,9.4,12.1c-2.1-2.8-3.8-5.7-5.2-9c2,4.8,4,9.6,6,14.3     c-1.1-2.9-1.9-5.9-2.5-9c0.7,5.3,1.4,10.6,2.1,16c-0.2-1.8-0.4-3.6-0.4-5.5c-0.3-15.6-6.5-31.4-17.6-42.4     c-10.4-10.4-27.5-18.2-42.4-17.6c-15.5,0.7-31.6,5.8-42.4,17.6C286,799.9,278.8,814.6,279.1,830.7z"/></g></g></g><text x="0" y="1039" fill="#000000" font-size="5px" font-weight="bold" font-family="'Helvetica Neue', Helvetica, Arial-Unicode, Arial, Sans-serif">Created by shashank singh</text><text x="0" y="1044" fill="#000000" font-size="5px" font-weight="bold" font-family="'Helvetica Neue', Helvetica, Arial-Unicode, Arial, Sans-serif">from the Noun Project</text></svg>